<svg width="170" height="170" xmlns="http://www.w3.org/2000/svg" xmlns:xlink="http://www.w3.org/1999/xlink" xml:space="preserve" overflow="hidden"><g transform="translate(-1273 -1159)"><path d="M1275.5 1244C1275.5 1198.44 1312.44 1161.5 1358 1161.5 1403.56 1161.5 1440.5 1198.44 1440.5 1244 1440.5 1289.56 1403.56 1326.5 1358 1326.5 1312.44 1326.5 1275.5 1289.56 1275.5 1244Z" stroke="#172C51" stroke-width="4.58333" stroke-miterlimit="8" fill="#646464" fill-rule="evenodd"/><g><g><g><path d="M5.47567 5.47567 60.8089 5.47567 60.8089 60.8089 5.47567 60.8089Z" stroke="#000000" stroke-width="4.61109" fill="#FFFFFF" fill-rule="evenodd" transform="matrix(1 0 0 1 1316 1202)"/><path d="M22.7673 78.1004 78.1004 78.1004 78.1004 22.7673 67.7254 22.7673 67.7254 67.7254 22.7673 67.7254Z" stroke="#000000" stroke-width="3.45833" fill="#FFFFFF" fill-rule="evenodd" transform="matrix(1 0 0 1 1316 1202)"/></g></g></g></g></svg>