<svg width="170" height="170" xmlns="http://www.w3.org/2000/svg" xmlns:xlink="http://www.w3.org/1999/xlink" xml:space="preserve" overflow="hidden"><g transform="translate(-2507 -1060)"><path d="M2509.5 1145C2509.5 1099.44 2546.44 1062.5 2592 1062.5 2637.56 1062.5 2674.5 1099.44 2674.5 1145 2674.5 1190.56 2637.56 1227.5 2592 1227.5 2546.44 1227.5 2509.5 1190.56 2509.5 1145Z" stroke="#172C51" stroke-width="4.58333" stroke-miterlimit="8" fill="#646464" fill-rule="evenodd"/><g><g><g><path d="M0.704115 41.4031 40.7277 2.15419C41.0714 1.85239 41.4691 1.7015 41.9211 1.7015 42.3731 1.7015 42.7498 1.85239 43.0517 2.15419L82.3006 41.4031C82.6443 41.7468 82.7629 42.027 82.6564 42.2431 82.5499 42.4593 82.2812 42.5668 81.8503 42.5651L70.5523 42.5651 70.5523 79.6836C70.5523 80.1146 70.3908 80.4915 70.0681 80.8142 69.7455 81.1368 69.3685 81.2983 68.9376 81.2983L52.7979 81.2983C52.367 81.2983 51.9901 81.1368 51.6674 80.8142 51.3447 80.4915 51.1832 80.1146 51.1832 79.6836L51.1832 55.4754 31.8166 55.4754 31.8166 79.6836C31.8166 80.1146 31.6552 80.4915 31.3324 80.8142 31.0097 81.1368 30.6328 81.2983 30.2019 81.2983L14.0622 81.2983C13.6313 81.2983 13.2545 81.1368 12.9317 80.8142 12.609 80.4915 12.4476 80.1146 12.4476 79.6836L12.4476 42.5651 1.14955 42.5651C0.71864 42.5651 0.449928 42.4579 0.343412 42.2431 0.236896 42.0284 0.355516 41.7486 0.699274 41.4031Z" fill="#FFFFFF" transform="matrix(1 0 0 1 2550 1103)"/></g></g></g></g></svg>