<svg width="170" height="170" xmlns="http://www.w3.org/2000/svg" xmlns:xlink="http://www.w3.org/1999/xlink" xml:space="preserve" overflow="hidden"><g transform="translate(-2101 -1228)"><path d="M2103.5 1313C2103.5 1267.44 2140.44 1230.5 2186 1230.5 2231.56 1230.5 2268.5 1267.44 2268.5 1313 2268.5 1358.56 2231.56 1395.5 2186 1395.5 2140.44 1395.5 2103.5 1358.56 2103.5 1313Z" stroke="#172C51" stroke-width="4.58333" stroke-miterlimit="8" fill="#646464" fill-rule="evenodd"/><g><g><g><path d="M34.6225 5.92024 47.3776 5.92024C48.2704 5.92024 49.0255 6.22877 49.6426 6.84582 50.2596 7.46287 50.5681 8.21785 50.5681 9.11073L50.5681 31.4322 72.8896 31.4322C73.7824 31.4322 74.5375 31.7407 75.1542 32.3578 75.7716 32.9748 76.0801 33.7298 76.0801 34.6225L76.0801 47.3776C76.0801 48.2704 75.7716 49.0255 75.1542 49.6426 74.5375 50.2596 73.7824 50.5681 72.8896 50.5681L50.5681 50.5681 50.5681 72.8896C50.5681 73.7824 50.2593 74.5375 49.6426 75.1542 49.0255 75.7716 48.2704 76.0801 47.3776 76.0801L34.6225 76.0801C33.7298 76.0801 32.9748 75.7716 32.3578 75.1542 31.7407 74.5375 31.4322 73.7824 31.4322 72.8896L31.4322 50.5681 9.11073 50.5681C8.21785 50.5681 7.46287 50.2593 6.84582 49.6426 6.22877 49.0255 5.92024 48.2704 5.92024 47.3776L5.92024 34.6225C5.92024 33.7298 6.22877 32.9748 6.84582 32.3578 7.46287 31.7407 8.21785 31.4322 9.11073 31.4322L31.4322 31.4322 31.4322 9.11073C31.4322 8.21785 31.7407 7.46287 32.3578 6.84582 32.9748 6.22877 33.7298 5.92024 34.6225 5.92024Z" fill="#FFFFFF" transform="matrix(1 0 0 1.0122 2145 1271)"/></g></g></g></g></svg>