<svg width="170" height="170" xmlns="http://www.w3.org/2000/svg" xmlns:xlink="http://www.w3.org/1999/xlink" xml:space="preserve" overflow="hidden"><g transform="translate(-2020 -958)"><path d="M2022.5 1043C2022.5 997.436 2059.44 960.5 2105 960.5 2150.56 960.5 2187.5 997.436 2187.5 1043 2187.5 1088.56 2150.56 1125.5 2105 1125.5 2059.44 1125.5 2022.5 1088.56 2022.5 1043Z" stroke="#172C51" stroke-width="4.58333" stroke-miterlimit="8" fill="#646464" fill-rule="evenodd"/><g><g><g><path d="M72.8896 31.4322C73.7824 31.4322 74.5375 31.7407 75.1542 32.3578 75.7716 32.9748 76.0801 33.7298 76.0801 34.6225L76.0801 47.3776C76.0801 48.2704 75.7716 49.0255 75.1542 49.6426 74.5375 50.2593 73.7824 50.5681 72.8896 50.5681L9.11073 50.5681C8.21785 50.5681 7.46287 50.2593 6.84582 49.6426 6.22877 49.0255 5.92024 48.2704 5.92024 47.3776L5.92024 34.6225C5.92024 33.7298 6.22877 32.9748 6.84582 32.3578 7.46287 31.7407 8.21785 31.4322 9.11073 31.4322Z" fill="#FFFFFF" transform="matrix(1 0 0 1.01219 2064 1001)"/></g></g></g></g></svg>